<?xml version="1.0" encoding="UTF-8" standalone="no"?><!DOCTYPE svg PUBLIC "-//W3C//DTD SVG 1.1//EN" "http://www.w3.org/Graphics/SVG/1.1/DTD/svg11.dtd"><svg width="100%" height="100%" viewBox="0 0 96 96" version="1.1" xmlns="http://www.w3.org/2000/svg" xmlns:xlink="http://www.w3.org/1999/xlink" xml:space="preserve" xmlns:serif="http://www.serif.com/" style="fill-rule:evenodd;clip-rule:evenodd;stroke-linejoin:round;stroke-miterlimit:2;"><circle id="Background" cx="48" cy="48" r="48" style="fill:#fff;"/><g id="Logo"><path d="M85.53,79.006c-3.417,-2.173 -6.414,-5.243 -8.538,-10.206l-0.567,-1.486l1.032,-1.584c7.293,-12.096 6.617,-27.959 -2.844,-39.512c-6.659,-8.126 -16.277,-12.401 -26.023,-12.563l17.021,35.376l5.792,-12.015l8.13,0l-13.946,28.333l-24.769,-50.935c-5.179,1.107 -10.177,3.423 -14.549,7.009c-3.104,2.541 -5.641,5.518 -7.61,8.765l17.138,0c3.697,0 7.345,1.155 9.991,3.529c2.646,2.373 3.72,4.599 3.72,7.914l-0,1.069c-0,2.567 -0.811,4.449 -2.433,6.502c-1.495,1.894 -2.779,2.552 -4.952,3.314l13.9,28.888c2.056,-0.489 4.078,-1.166 6.04,-2.044l1.963,-0.987l3.969,1.679c4.96,1.75 10.461,2.596 16.771,2.062c1.61,-0.13 2.12,-2.249 0.764,-3.108" style="fill:#00afb8;fill-rule:nonzero;"/><path d="M34.239,53.187l-4.007,0l-0,11.181l-6.903,0l-0.017,-17.57l13.202,0.009c1.597,0 2.408,-0.365 3.529,-1.369c1.12,-1.005 1.525,-2.16 1.525,-3.593c-0,-1.412 -0.405,-2.353 -1.525,-3.379c-1.121,-1.028 -3.124,-1.391 -4.722,-1.391l-19.849,0c-3.618,10.826 -1.778,23.22 5.989,32.695c6.872,8.39 16.893,12.681 26.957,12.573l-14.179,-29.156Z" style="fill:#00afb8;fill-rule:nonzero;"/></g></svg>